<svg height='300' width='300'  fill="#000000" xmlns="http://www.w3.org/2000/svg" viewBox="0 0 128 128" x="0px" y="0px"><title>09 smie happy smiley emoticon</title><path d="M31.4,108.69a85.3,85.3,0,0,0,13.16,7.72c4.47,1.92,9.5,2.64,14.3,3.23,12.25,1.52,22.37-2.84,32.71-9,9.52-5.67,18.66-13.31,23.64-23.41s5.83-22.09,3.67-33.19C114,28.81,93.29,10.67,68,8A2.4,2.4,0,0,0,65.24,10a2.44,2.44,0,0,0-2.72-1.75c-11.87,1-23.25,4.45-32.83,11.73-9.87,7.5-15,17-19,28.43C6.48,60.36,7.42,71.15,11.83,83,15.9,93.84,21.66,102.17,31.4,108.69ZM14,58.41c2.2-11.26,7.12-22.73,15.58-30.6,9.06-8.43,20.75-12.52,32.91-13.59a3.06,3.06,0,0,0,2.78-2.49A3.1,3.1,0,0,0,68,14a50.87,50.87,0,0,1,43.14,34.24c3.2,9.5,4,20.07,1.21,29.77-2.9,10.13-10.15,18.16-18.65,24.1-8.07,5.64-17.8,11.46-27.84,11.9a44.56,44.56,0,0,1-24.68-6.35c-8.11-4.77-15.66-9.89-20.12-18.45C16.46,80.37,12.06,68.52,14,58.41Z"></path><path d="M44.42,79.94c-2.46-3-6.68,1.28-4.24,4.24C52.64,99.3,74,96.34,87.57,84.62c2.93-2.53-1.33-6.76-4.24-4.24C72,90.13,54.71,92.42,44.42,79.94Z"></path><path d="M31.53,52.61c7.31-4.4,17.41-8.94,24.83-2.15,2.84,2.6,7.1-1.63,4.24-4.24C51,37.45,38.4,41.47,28.5,47.43,25.2,49.42,28.21,54.61,31.53,52.61Z"></path><path d="M72.14,50.57c5.53-8,16.31-5,23.64-1.74,3.5,1.56,6.55-3.61,3-5.18-10.68-4.76-24.2-7.2-31.85,3.9C64.76,50.73,70,53.74,72.14,50.57Z"></path></svg>