<svg height='300' width='300'  fill="#000000" xmlns="http://www.w3.org/2000/svg" xmlns:xlink="http://www.w3.org/1999/xlink" version="1.1" x="0px" y="0px" viewBox="0 0 91 91" style="enable-background:new 0 0 91 91;" xml:space="preserve"><g><path d="M31.4,30.9c-2.1,3.7-4.8,7.4-7.9,10.4c-2.3,2.3-5.7,3.6-6.2,7c-1.1,8,1.9,16.5,7.1,22.5c2.8,3.3,6.4,5.7,9.7,8.4   c3.2,2.5,6.3,4.4,10.6,4.4c8.5,0.1,16.6-5.8,22.1-11.8c6.5-7.3,8.8-15.8,9.8-25.4c0.1-1.2-1.1-2.3-2.2-2.2c-8,0.3-15.4-2.5-22.4-6   c-5.4-2.7-12.6-5.8-15.1-11.8c-1.1-2.7-5.6-1.6-4.5,1.3c2.7,7.3,9.6,10.9,16.2,14.2c5.3,2.6,10.8,4.9,16.5,6.1   c-0.5,0.3-1,0.6-1.5,0.8c-1.7,0.6-3.5,0.3-5.2,0.9c-2.1,0.7-2.5,4.2,0,4.7c2.5,0.4,5-0.8,6.8-2.5c0.7-0.7,1.5-1.5,1.7-2.5   c0.1-0.4,0-0.7-0.2-1c1.7,0.3,3.5,0.4,5.2,0.5c-0.5,4-1.2,8-2.7,11.7c-1.7,4.2-4.6,7.7-7.9,10.8c-3.4,3.3-8.2,5.7-12.7,6.9   c-2.3,0.6-5,0.8-7.3-0.1c-2.1-0.8-3.9-2.6-5.6-3.9c-3.7-2.8-7.3-5.3-10-9.2c-2.7-4-4.3-8.8-4.5-13.7c-0.1-2-0.2-2.9,1.4-4.1   c1.8-1.4,3.4-3,4.8-4.7c2.7-3.2,4.6-6.7,5.8-10.7C33.5,30.5,31.9,29.9,31.4,30.9z"></path><path d="M28,47.9c-0.9-0.5-2,0.3-1.8,1.4c0.3,1,1,1.8,1.8,2.5c1.8,1.7,4.3,2.9,6.8,2.4c2.5-0.4,2.1-4,0-4.7   c-1.7-0.5-3.5-0.2-5.2-0.8C29,48.5,28.5,48.2,28,47.9z"></path><path d="M45,71.9c4.1,0.7,7.8-1,10.1-4.5c1.7-2.7-2.5-5.1-4.3-2.5c-2.2,3.4-7.6,2.6-9.5-0.2c-1.3-1.9-4.6-0.8-3.8,1.6   C38.6,69.5,41.8,71.3,45,71.9z"></path><path d="M15.2,82.7c3.3,2.3,7,4.6,10.9,5.7c4.4,1.2,9.1,1.1,13.6,0.9c5.3-0.2,10.5-0.5,15.8-0.6c9.1-0.3,17.5-0.4,24.1-7.6   c6.1-6.6,6.2-15.5,6.8-24c1.4-18.8-1.8-41.9-21.6-49.8c-2.8-1.1-4.2,3.6-1.3,4.6C78.9,17.6,83,35.5,82.8,50.2c0,4-0.3,8.1-0.6,12.1   c-0.3,4.3-0.8,8.8-3,12.6C74.5,82.6,66.6,84,58.2,84c-8.3,0.1-16.7,1-25,0.6c-3.7-0.2-7.2-0.9-10.5-2.7c-3.4-1.9-6.7-3.5-8.6-7   c-3.6-6.6-5.1-15.6-5.2-23c-0.1-7.5,1.1-15.1,3.8-22.2c3.1-8,8.5-15.1,15.9-19.5c7.3-4.3,15.1-5.1,23.4-4.1   c1.7,0.2,1.7-2.2,0.4-2.7c-7.4-3.1-16.2-1.3-23.2,2.1c-7.4,3.6-13.4,9.7-17.4,16.8c-8.5,15.2-9.2,35.4-3,51.6   C10.3,77.5,12.1,80.5,15.2,82.7z"></path><path d="M56.8,9C56.8,9.1,56.8,9.1,56.8,9C56.8,9,56.8,9,56.8,9z"></path><circle cx="58.3" cy="7.2" r="2.3"></circle></g></svg>