<svg height='300' width='300'  fill="#000000" xmlns="http://www.w3.org/2000/svg" xmlns:xlink="http://www.w3.org/1999/xlink" version="1.1" x="0px" y="0px" viewBox="0 0 48 48" enable-background="new 0 0 48 48" xml:space="preserve"><g><g><g><path fill="#000000" d="M40.3,44.2c-8.6,2.1-18.1,1.4-26.9,1.3c-2,0-4,0-6,0c-5.6-0.1-4.9-5.1-4.9-8.5c0-4.4,0-8.9,0-13.3     s0-8.9,0-13.3c0-1.9,0-3.8,0-5.7c0-2.9,6-2,7.5-2c4.4,0,8.9,0.2,13.3,0.3c1.9,0,13.4-1.4,13.4,1.4c0.1,9.2,0.1,18.4,0,27.5     c0,2.9-0.3,12.1,3.7,13.2c3.1,0.8,5.9-2.4,6.1-5.2c0.5-8.8,0.1-17.7,0.1-26.4c0-0.8-1.3-0.8-1.3,0c0,5.6,0,11.2,0,16.9     c0,3.5,0.2,7.1-0.3,10.6c-1.1,2.7-3,3.2-5.6,1.4c-1.3-2-1.5-4.8-1.6-7.2c-0.3-5.6,0.1-11.3,0.1-16.9c0-5.1,1-11.5-0.2-16.4     c-0.1-0.2-0.2-0.4-0.4-0.4c-4.2-0.8-9.7,0.5-14.1,0.4c-6.3,0-12.7-0.4-19-0.2c-3,0.1-3.1,0.2-3.1,3.1c0,6.3,0,12.7,0,19     c0,5.9-0.3,11.9,0.2,17.8c0.2,2.8,1.8,4.5,4.4,5.2c2.3,0.6,5.3,0.1,7.6,0.1c3.3,0,6.6,0,9.9-0.1c5.8-0.1,11.7,0.1,17.3-1.3     C41.5,45.2,41.1,44,40.3,44.2L40.3,44.2z"></path></g></g><g><g><path fill="#000000" d="M6.6,20.8c3.4,0,6.8,0,10.2,0c0.8,0,0.8-1.3,0-1.3c-3.4,0-6.8,0-10.2,0C5.8,19.6,5.8,20.8,6.6,20.8     L6.6,20.8z"></path></g></g><g><g><path fill="#000000" d="M21.9,20.6c3.5,0,7.1,0,10.6,0c0.8,0,0.8-1.3,0-1.3c-3.5,0-7.1,0-10.6,0C21.1,19.3,21.1,20.6,21.9,20.6     L21.9,20.6z"></path></g></g><g><g><path fill="#000000" d="M22.3,26.6c3.6,0.2,7.2,0.1,10.7-0.3c0.8-0.1,0.8-1.3,0-1.3c-3.6,0.4-7.1,0.5-10.7,0.3     C21.5,25.3,21.5,26.5,22.3,26.6L22.3,26.6z"></path></g></g><g><g><path fill="#000000" d="M5.4,26.3c3.9,0,7.8,0.1,11.7,0.1c0.8,0,0.8-1.2,0-1.3c-3.9,0-7.8-0.1-11.7-0.1     C4.6,25.1,4.6,26.3,5.4,26.3L5.4,26.3z"></path></g></g><g><g><path fill="#000000" d="M6.3,33.5c3.9-0.2,7.8-0.1,11.7,0.3c0.8,0.1,0.8-1.2,0-1.3c-3.9-0.4-7.8-0.4-11.7-0.3     C5.5,32.2,5.5,33.5,6.3,33.5L6.3,33.5z"></path></g></g><g><g><path fill="#000000" d="M6.5,40.2c4.1-0.1,8.2-0.2,12.2-0.2c0.8,0,0.8-1.3,0-1.3c-4.1,0-8.2,0.1-12.2,0.2     C5.7,39,5.7,40.2,6.5,40.2L6.5,40.2z"></path></g></g><g><g><path fill="#000000" d="M22,40c3.4,0,6.8,0,10.3-0.1c0.8,0,0.8-1.3,0-1.3c-3.4,0.1-6.8,0.1-10.3,0.1C21.2,38.7,21.2,40,22,40     L22,40z"></path></g></g><g><g><path fill="#000000" d="M21.9,32.5c3.7,0.6,7.4,0.8,11.1,0.6c0.8-0.1,0.8-1.3,0-1.3c-3.6,0.3-7.2,0.1-10.8-0.5     C21.5,31.1,21.2,32.3,21.9,32.5L21.9,32.5z"></path></g></g><g><g><path fill="#000000" d="M6.3,7.1c4.6,0,9.3,0,13.9,0c2.6,0,5.3,0,7.9,0c2.1-0.5,3.7,0.4,4.7,2.6c0.5,1.4,0.1,2.5-1.1,3.3     c-5.1,0.2-10.3,0.3-15.4,0.3c-2.6,0-5.1,0-7.7-0.1c-2.2,0-1.3-5.2-1.3-6.4C7.3,6,6,6,6,6.8c0,2.3,0,4.7,0,7     c0,0.3,0.3,0.6,0.6,0.6c9,0.2,18,0.1,27-0.2c0.3,0,0.6-0.3,0.6-0.6c-0.2-4.8,1.1-7.7-4.1-7.7c-7.9,0-15.9,0-23.8,0     C5.5,5.8,5.5,7.1,6.3,7.1L6.3,7.1z"></path></g></g></g></svg>