<svg height='300' width='300'  fill="#000000" xmlns="http://www.w3.org/2000/svg" viewBox="0 0 128 128" x="0px" y="0px"><title>02 wink smile smiley emoticon</title><path d="M68,8A2.4,2.4,0,0,0,65.24,10a2.44,2.44,0,0,0-2.72-1.75c-11.87,1-23.25,4.45-32.83,11.73-9.87,7.5-15,17-19,28.43C6.48,60.36,7.42,71.15,11.83,83c4.07,10.88,9.83,19.22,19.56,25.73a85.3,85.3,0,0,0,13.16,7.72c4.47,1.92,9.5,2.64,14.3,3.23,12.25,1.52,22.37-2.84,32.71-9,9.52-5.67,18.66-13.31,23.64-23.41s5.83-22.09,3.67-33.19C114,28.81,93.29,10.67,68,8Zm44.35,70c-2.9,10.13-10.15,18.16-18.65,24.1-8.07,5.64-17.8,11.46-27.84,11.9a44.56,44.56,0,0,1-24.68-6.35c-8.11-4.77-15.66-9.89-20.12-18.45-4.62-8.86-9-20.7-7-30.82,2.2-11.26,7.12-22.73,15.58-30.6,9.06-8.43,20.75-12.52,32.91-13.59a3.06,3.06,0,0,0,2.78-2.49A3.1,3.1,0,0,0,68,14a50.87,50.87,0,0,1,43.14,34.24C114.36,57.75,115.15,68.33,112.37,78Z"></path><path d="M83.32,80.37C72,90.13,54.71,92.42,44.42,79.94c-2.46-3-6.68,1.28-4.24,4.24C52.64,99.3,74,96.34,87.57,84.62,90.5,82.09,86.24,77.86,83.32,80.37Z"></path><path d="M78.35,33.79a2.93,2.93,0,0,0-1.21,1.42,2.76,2.76,0,0,0-1.23,1.24c-3.06,5.83-2.83,14.09,0,20.05,2.43,5.12,8.6,7,12.59,2.41s4.8-14.77,3.23-20.47C90.06,32.45,83.29,30.68,78.35,33.79Zm7.72,11.73c-.07,2.18.12,7.46-1.81,9.09-3.06,2.6-3.9-4-4.2-6-.48-3.19-.51-6.24,1-9.17a3.31,3.31,0,0,0,.18-.46l.1-.05C86.61,35.68,86.15,42.82,86.06,45.53Z"></path><path d="M54.59,54.62a3.09,3.09,0,0,0,1.12.07c2.14.8,5-.73,4-3.39A16,16,0,0,0,50,41.86c-5.5-2-10.43-.88-15.76,1.05-3.6,1.3-2,7.1,1.6,5.79,4.25-1.54,9.9-2.66,14-.58A17.22,17.22,0,0,0,37,54c-2.5,2.91,1.72,7.18,4.24,4.24C44.67,54.22,49.57,53.35,54.59,54.62Z"></path></svg>