<svg height='300' width='300'  fill="#000000" xmlns="http://www.w3.org/2000/svg" xmlns:xlink="http://www.w3.org/1999/xlink" version="1.1" x="0px" y="0px" viewBox="0 0 91 91" style="enable-background:new 0 0 91 91;" xml:space="preserve"><g><path d="M9.2,60.4c1.7,1.4,3.6,2.1,4.9,3.9c1.2,1.7,2,3.7,3,5.6c3.5,7,8.8,13.6,16,17.1c7.6,3.7,16.6,3.1,24-1   c7.4-4.1,11.7-10.9,15.9-18c1.1-1.8,1.7-3.7,3.5-4.9c1.5-1,3.2-1.7,4.5-3c2.5-2.4,4.2-5.7,4.4-9.2c0.1-1.9-0.2-3.7-1-5.4   c-0.6-1.3-1.6-2.6-1.9-4c-0.4-1.6,0.1-3.4,0.2-5c0.4-5,0.2-10.4-1.5-15.1C78.2,12.9,70.2,5.6,60.7,6.5c-3.2,0.3-3.2,5.4,0,5.1   c8-0.9,14.8,5.7,17.3,12.9c1.2,3.6,1.5,7.3,1.1,11c-0.2,1.9-0.7,3.9-0.7,5.8c-3.9-0.7-7.6-1.3-11.2-3.6c-2.2-1.4-4.2-3-6.1-4.8   c-1.8-1.7-3-3.6-4.2-5.7c0.1-0.2,0.1-0.3,0.2-0.5c0.2-0.8-0.6-1.8-1.4-1.4c-4.1,1.7-7.3,5.9-11.2,8.3c-3.7,2.2-7.8,4.2-11.9,5.3   c-4.1,1-8.3,1.1-12.5,1.1c-1.8,0-3.6-0.1-5.4-0.3c-0.3,0-0.5-0.1-0.8-0.1c0.2-1.9,0.1-3.8,0.1-5.9c0.1-8.3,4.6-16,11-21.1   c3.4-2.7,7.3-4.7,11.5-5.7c4.3-1.1,8.7-0.5,13.1-0.6c1.3,0,1.7-1.7,0.6-2.4c-7-4.4-17-1.9-23.8,2C19.1,9.9,13.3,16.8,10.7,25   c-1.4,4.4-1.2,8.6-1.3,13.1c-0.2,4.4-4,7.2-4.4,11.5C4.5,53.6,6.2,57.8,9.2,60.4z M12.3,44.8c0.4-0.6,0.6-1.2,0.9-1.8   c1.9,0.8,4.4,1.1,5.6,1.3c4.7,0.7,9.7,0.5,14.4-0.4c4.7-1,9.4-3.5,13.4-6.1c2.5-1.7,5.8-3.9,8.1-6.7c1.4,3.8,6.1,7.7,8.3,9.3   c4.9,3.7,11.1,5.9,17.2,6c0.1,0.2,0.2,0.3,0.2,0.5c1.5,3.3,0.6,6.8-1.8,9.5c-1.9,2.2-5,3-6.8,5.2c-2.1,2.6-3.5,6.1-5.2,8.9   c-1.8,2.8-3.7,5.6-6.1,7.8c-6,5.6-14.2,8.4-22.2,5.5c-6.5-2.4-11.6-7.4-15.1-13.3c-1.7-2.8-2.9-6-4.8-8.8c-0.8-1.1-1.7-2.2-2.8-3.1   c-1.5-1.2-3.3-1.8-4.5-3.4C8.4,51.4,10.3,48.3,12.3,44.8z"></path><path d="M54.2,9.3c1.1,0,2.1-0.9,2.1-2.1c0-1.1-0.9-2.1-2.1-2.1c-1.1,0-2.1,0.9-2.1,2.1C52.2,8.3,53.1,9.3,54.2,9.3z"></path><path d="M30.5,56.1c2,0,3.7-1.6,3.8-3.6c0-1-0.4-2-1-2.7c-0.3-0.4-0.7-0.6-1.1-0.8c-0.7-0.3-1.3-0.3-1.9,0c-0.1,0-0.1,0-0.2,0   c-1.1-0.1-2.1,0.5-2.7,1.4c-0.4,0.6-0.6,1.5-0.6,2.2C26.8,54.6,28.4,56.2,30.5,56.1z"></path><path d="M60.3,56.1c2,0,3.7-1.6,3.8-3.6c0-1-0.4-2-1-2.7c-0.3-0.4-0.7-0.6-1.1-0.8c-0.7-0.3-1.3-0.3-1.9,0c-0.1,0-0.1,0-0.2,0   c-1.1-0.1-2.1,0.5-2.7,1.4c-0.4,0.6-0.6,1.5-0.6,2.2C56.7,54.6,58.3,56.2,60.3,56.1z"></path><path d="M33,67.9c5.4,9.7,20.5,9.1,25.6-0.5c1.4-2.6-2.5-4.9-3.9-2.3c-1.9,3.3-5.4,5.4-9.2,5.3c-3.9-0.1-6.9-2.3-9.8-4.6   C34.3,64.8,32,66.1,33,67.9z"></path></g></svg>