<svg height='300' width='300'  fill="#000000" xmlns="http://www.w3.org/2000/svg" xmlns:xlink="http://www.w3.org/1999/xlink" version="1.1" x="0px" y="0px" viewBox="0 0 100 100" style="enable-background:new 0 0 100 100;" xml:space="preserve"><path d="M64.9,16.1c-7.5-3.3-16.1-4.3-24.1-2.4c-8.8,2.2-18.1,7.6-22.3,16c-8.2,13.1-7.5,31,1.9,43.4c9.3,12.3,26.4,17,41,12.6  C76.2,81.2,86,67.4,87.1,52.1C88.2,36.5,79.2,22.4,64.9,16.1z M83.8,47.1c0,0.4,0,0.8,0,1.2c-3.3-4.2-8.1-6.8-13-9.1  c-5.2-2.4-10.5-4.7-16-6.2c0-0.2,0.1-0.4,0.1-0.7c2.2-8.7,10.3-8.8,17.6-7.4C78.9,30.4,83.2,38.2,83.8,47.1z M69,22.1  c-4.1-0.5-8.2-0.2-11.6,2.4c-2.5,1.9-4,4.7-4.6,7.8c-1-0.2-1.9-0.5-2.9-0.7c-1.9-0.4-3.8-0.7-5.7-0.8c1.6-5.1,3.8-10,6.6-14.7  c2.9,0.1,5.8,0.6,8.5,1.4C62.8,18.6,66.1,20.2,69,22.1z M48.5,16.2c-2.7,4.6-4.8,9.5-6.3,14.5c-2.2-0.1-4.4-0.1-6.6,0.1  c0-1.1-0.1-2.2-0.3-3.3c-0.5-2.6-1.8-5.4-4.1-6.5C36.3,18,42.4,16.4,48.5,16.2z M28.9,22.6c3.8-0.1,4.7,5.2,4.7,7.9  c0,0.2,0,0.4,0,0.5c-5.3,0.8-10.4,2.6-14.9,5.6c0.7-1.8,1.6-3.6,2.7-5.3C23.1,27.9,25.8,24.9,28.9,22.6z M17.5,40.1  c4.6-3.9,10.1-6.1,15.9-6.9c-0.2,1.7-0.7,3.3-1.3,4.9c-1.8,4.7-4.8,8.8-7.4,13.1c-2.7,4.5-4.9,9.6-4.9,14.8  C15.9,58,15.1,48.6,17.5,40.1z M22.5,70.3c-3.7-10.9,6.7-20.6,10.8-29.9c1.1-2.4,1.8-4.9,2.2-7.5c2-0.2,4.1-0.3,6.1-0.2  c-1.7,6.3-2.6,12.9-2.7,19.5c-0.1,6.9,0.7,13.7,2,20.4c0.8,3.8,1.5,8,4,10.9c-7-1-13.7-4.1-18.7-9C24.8,73.2,23.6,71.8,22.5,70.3z   M48.4,83.9c-5.1-2.7-5.7-11.7-6.5-16.8C41,60.9,40.6,54.7,41,48.4c0.3-5.3,1.2-10.5,2.6-15.6c2.3,0.2,4.6,0.6,6.9,1.1  c0.6,0.1,1.3,0.3,1.9,0.5c-0.3,2.4-0.2,4.8,0.1,6.9c0.8,6.3,4.1,11.7,7.7,16.8c2,2.8,4.1,5.6,5.9,8.5c1.8,2.9,5.5,8.7,2.7,12  c0,0,0,0,0,0c-1.1,0.7-2.2,1.4-3.4,2C60.1,83.1,54.2,84.2,48.4,83.9z M71.6,76.5c0.3-2.9-1.2-6.1-2.6-8.6c-2.8-5.3-6.8-9.9-10-15  c-3.3-5.4-5.4-11.6-4.6-17.9c5.1,1.5,10,3.5,14.8,5.7c5.5,2.5,11.1,5.3,14.3,10.7c0.1,0.1,0.2,0.2,0.3,0.3  C83.2,61.2,78.9,70.4,71.6,76.5z"></path></svg>