<svg xmlns="http://www.w3.org/2000/svg" viewBox="0 0 230.03 104.61" width="164" height="70"><defs><style>.cls-1{fill:#bd1818;}.cls-2{fill:#e49900;}.cls-3{fill:#fff;}</style></defs><g id="Layer_2" data-name="Layer 2"><g id="Шар_1" data-name="Шар 1"><path class="cls-1" d="M113.06,13.09a2.05,2.05,0,0,1,1.49.61,2.08,2.08,0,0,1,.61,1.48V43.73a2.13,2.13,0,0,1-.61,1.51,2.14,2.14,0,0,1-3,0,2.07,2.07,0,0,1-.63-1.51V17.3h-8.52V43.73a2.12,2.12,0,0,1-.6,1.51,2.11,2.11,0,0,1-3.6-1.51V15.18a2,2,0,0,1,.61-1.48,2.11,2.11,0,0,1,1.5-.61Z"/><path class="cls-1" d="M136.33,13.09a2.12,2.12,0,0,1,2.11,2.09V43.66a2,2,0,0,1-.63,1.49,2,2,0,0,1-1.48.63,2.13,2.13,0,0,1-2.11-2.12V17.3h-5.44a5.12,5.12,0,0,0-5.15,5.14V43.73a2.12,2.12,0,0,1-3.6,1.51,2.12,2.12,0,0,1-.6-1.51V22.44a9.37,9.37,0,0,1,9.35-9.35Z"/><path class="cls-1" d="M159.43,18.62a8.11,8.11,0,0,1,.43,2.61v22.5a2.07,2.07,0,0,1-.63,1.51,2.13,2.13,0,0,1-3,0,2.09,2.09,0,0,1-.61-1.51V30.24h-8.75V43.73a2.12,2.12,0,0,1-.6,1.51,2.11,2.11,0,0,1-3.6-1.51V21.23a8.67,8.67,0,0,1,.41-2.61c0-.15,0-.18,0-.11a8,8,0,0,1,5.53-5.39l.07,0,.69-.18h.07l.09,0,.65-.11.16,0c.3,0,.57,0,.81,0h.15c.24,0,.51,0,.79,0l.18,0,.65.11.07,0h.09l.7.18a.05.05,0,0,0,0,0,8,8,0,0,1,5.53,5.39.08.08,0,0,1,0,.07ZM155.66,26V21.23a4,4,0,0,0-.34-1.64l0-.05a5.17,5.17,0,0,0-.63-1s0,0,0-.07a4.77,4.77,0,0,0-.45-.45.81.81,0,0,1-.13-.11l-.27-.2-.29-.18-.32-.16-.31-.13-.2-.07a3,3,0,0,0-.52-.13L152,17a4,4,0,0,0-.56,0h-.2a4,4,0,0,0-.57,0l-.18,0a2.72,2.72,0,0,0-.51.13l-.23.07-.29.13a1.72,1.72,0,0,0-.31.16,2,2,0,0,0-.3.18l-.27.2a.56.56,0,0,0-.13.11,4.77,4.77,0,0,0-.45.45.06.06,0,0,0,0,0l-.05,0a4.3,4.3,0,0,0-.61,1l0,.05a4.19,4.19,0,0,0-.34,1.64V26Z"/><path class="cls-1" d="M178.16,37.32a2,2,0,0,1,1.7.88,2,2,0,0,1,.3,1.87,8.58,8.58,0,0,1-8,5.77H172a8.5,8.5,0,0,1-8.52-8.52V21.23A8.5,8.5,0,0,1,172,12.74h.13a8.47,8.47,0,0,1,8,5.77,2,2,0,0,1-.3,1.87,2,2,0,0,1-1.7.85,1.9,1.9,0,0,1-2-1.37,4.14,4.14,0,0,0-1.55-2.11,4.21,4.21,0,0,0-2.52-.81H172a4.3,4.3,0,0,0-4.32,4.29V37.32A4.3,4.3,0,0,0,172,41.64h.13a4.34,4.34,0,0,0,4.07-2.92A1.9,1.9,0,0,1,178.16,37.32Z"/><path class="cls-1" d="M201.17,13a2,2,0,0,1,1.49.6,2.09,2.09,0,0,1,.6,1.49,2,2,0,0,1-.6,1.48,2,2,0,0,1-1.49.63h-5.62v26.5a2.12,2.12,0,0,1-.6,1.51,2.09,2.09,0,0,1-1.49.6,2,2,0,0,1-1.48-.6,2.07,2.07,0,0,1-.63-1.51V17.23h-5.6a2,2,0,0,1-1.5-.63,2,2,0,0,1-.61-1.48,2.06,2.06,0,0,1,.61-1.49,2.1,2.1,0,0,1,1.5-.6Zm0,0a2,2,0,0,1,1.49.6,2.09,2.09,0,0,1,.6,1.49,2,2,0,0,1-.6,1.48,2,2,0,0,1-1.49.63h-5.62v26.5a2.12,2.12,0,0,1-.6,1.51,2.09,2.09,0,0,1-1.49.6,2,2,0,0,1-1.48-.6,2.07,2.07,0,0,1-.63-1.51V17.23h-5.6a2,2,0,0,1-1.5-.63,2,2,0,0,1-.61-1.48,2.06,2.06,0,0,1,.61-1.49,2.1,2.1,0,0,1,1.5-.6Z"/><path class="cls-1" d="M114.28,61a8.29,8.29,0,0,1,.43,2.6v22.5a2.1,2.1,0,0,1-2.12,2.11,2,2,0,0,1-1.48-.6,2.12,2.12,0,0,1-.61-1.51V72.64h-8.74V86.12a2.07,2.07,0,0,1-2.09,2.11,2.05,2.05,0,0,1-2.11-2.11V63.62A8.55,8.55,0,0,1,98,61c.05-.15.05-.19,0-.12a8.07,8.07,0,0,1,5.53-5.39l.07,0,.7-.18h.06l.09,0,.66-.11.15,0c.3,0,.57,0,.81,0h.16c.24,0,.5,0,.79,0l.18,0,.65.11.07,0H108l.69.18,0,0a8.07,8.07,0,0,1,5.53,5.39.14.14,0,0,1,0,.07Zm-3.78,7.41V63.62a4.21,4.21,0,0,0-.33-1.64l0,0a4.25,4.25,0,0,0-.63-1l0-.06q-.21-.23-.45-.45l-.14-.12-.27-.2-.29-.18-.31-.16-.32-.13-.2-.07a2.83,2.83,0,0,0-.52-.13l-.18,0a3.87,3.87,0,0,0-.56,0H106a3.87,3.87,0,0,0-.56,0l-.18,0a3,3,0,0,0-.52.13l-.22.07-.3.13-.31.16a1.46,1.46,0,0,0-.29.18l-.27.2s-.06,0-.14.12-.31.3-.45.45a.08.08,0,0,0,0,0,0,0,0,0,1,0,0,3.89,3.89,0,0,0-.61,1s0,0,0,0a4.05,4.05,0,0,0-.34,1.64v4.81Z"/><path class="cls-1" d="M133.68,70.86a9.25,9.25,0,0,1,3.62,7.57v.18a9.39,9.39,0,0,1-2.72,6.77A8.86,8.86,0,0,1,128,88.23h-6.9a2.1,2.1,0,0,1-1.51-.62,2.14,2.14,0,0,1-.6-1.53V57.64a2.14,2.14,0,0,1,.6-1.53,2.1,2.1,0,0,1,1.51-.62H128a8.08,8.08,0,0,1,6,2.56,8.57,8.57,0,0,1,2.5,6.2v.14A8.49,8.49,0,0,1,133.68,70.86Zm-1.4-6.61A4.27,4.27,0,0,0,131,61.11a4.07,4.07,0,0,0-3-1.31h-4.79v9H128a4.12,4.12,0,0,0,3.05-1.3,4.33,4.33,0,0,0,1.26-3.12Zm.81,14.18a5.19,5.19,0,0,0-1.5-3.73,5,5,0,0,0-3.65-1.55h-4.76V83.9h4.76a5,5,0,0,0,3.65-1.55,5.19,5.19,0,0,0,1.5-3.74Z"/><path class="cls-1" d="M155.59,79.72a2.05,2.05,0,0,1,1.71.87,2,2,0,0,1,.29,1.87,8.23,8.23,0,0,1-3.06,4.13,8.14,8.14,0,0,1-5,1.64h-.13a8.52,8.52,0,0,1-8.52-8.51V63.62a8.52,8.52,0,0,1,8.52-8.49h.13a8.47,8.47,0,0,1,8.05,5.77,2,2,0,0,1-.29,1.87,2.06,2.06,0,0,1-1.71.85,1.9,1.9,0,0,1-2-1.37,4.09,4.09,0,0,0-1.55-2.11,4.21,4.21,0,0,0-2.52-.81h-.13a4.3,4.3,0,0,0-4.32,4.29v16.1A4.3,4.3,0,0,0,149.41,84h.13a4.16,4.16,0,0,0,2.52-.83,4.12,4.12,0,0,0,1.55-2.09A1.91,1.91,0,0,1,155.59,79.72Z"/><path class="cls-1" d="M178.61,55.42a2,2,0,0,1,1.48.61,2.06,2.06,0,0,1,.61,1.48,2,2,0,0,1-.61,1.48,2,2,0,0,1-1.48.63H173v26.5a2.07,2.07,0,0,1-2.09,2.11,2.1,2.1,0,0,1-2.12-2.11V59.62h-5.59a2.05,2.05,0,0,1-1.51-.63,2,2,0,0,1-.61-1.48,2.08,2.08,0,0,1,2.12-2.09Zm0,0a2,2,0,0,1,1.48.61,2.06,2.06,0,0,1,.61,1.48,2,2,0,0,1-.61,1.48,2,2,0,0,1-1.48.63H173v26.5a2.07,2.07,0,0,1-2.09,2.11,2.1,2.1,0,0,1-2.12-2.11V59.62h-5.59a2.05,2.05,0,0,1-1.51-.63,2,2,0,0,1-.61-1.48,2.08,2.08,0,0,1,2.12-2.09Z"/><path class="cls-1" d="M191.94,55.49A8.5,8.5,0,0,1,200.45,64v.14a8.52,8.52,0,0,1-8.51,8.52h-4.79V86.12a2.07,2.07,0,0,1-2.09,2.11,2.07,2.07,0,0,1-2.12-2.11V57.58a2.05,2.05,0,0,1,.61-1.49,2.11,2.11,0,0,1,1.51-.6ZM196.25,64a4.34,4.34,0,0,0-4.31-4.29h-4.79v8.74h4.79a4.34,4.34,0,0,0,4.31-4.31Z"/><path class="cls-1" d="M204.66,87.63a2.08,2.08,0,0,1-.61-1.51V57.22a2,2,0,0,1,.61-1.49,2.1,2.1,0,0,1,1.5-.6,2.05,2.05,0,0,1,1.48.6,2,2,0,0,1,.61,1.49v28.9a2.08,2.08,0,0,1-.61,1.51,2.05,2.05,0,0,1-1.48.6A2.1,2.1,0,0,1,204.66,87.63Z"/><path class="cls-1" d="M230,86.12a2.05,2.05,0,0,1-.63,1.51,2.13,2.13,0,0,1-3,0,2.08,2.08,0,0,1-.61-1.51V72.64H221a4.27,4.27,0,0,0-4.31,4.29v9.19a2.12,2.12,0,0,1-.61,1.51,2.07,2.07,0,0,1-1.48.6,2.07,2.07,0,0,1-2.12-2.11V76.93a8.21,8.21,0,0,1,2.92-6.41,8.19,8.19,0,0,1-2.92-6.4V64a8.54,8.54,0,0,1,8.5-8.52h6.9a2,2,0,0,1,1.48.63,2,2,0,0,1,.63,1.49Zm-4.2-17.71V59.67H221A4.11,4.11,0,0,0,218,61a4.16,4.16,0,0,0-1.25,3v.14A4.28,4.28,0,0,0,221,68.41Z"/><path class="cls-2" d="M50.13,56.36a2.43,2.43,0,0,1,3,2.28A3.55,3.55,0,0,1,52,61.36a28.33,28.33,0,0,1,1.73,3.92C55.85,64,57,61.79,57,58.63a6.71,6.71,0,0,0-3-5.33V42.58a10.82,10.82,0,0,1,6.27-9.14,10.41,10.41,0,0,1,3.92-.68V28.62a13.71,13.71,0,0,0-11.43,6.11,18.52,18.52,0,0,0-2.7,10.33v11.3Z"/><path class="cls-2" d="M60.34,70l-11,0,0,2.06-2,1.88H64.25V52.59c-.87-1.15-3.92-.75-3.92-.75V70Z"/><path class="cls-2" d="M30.49,57.08a11,11,0,0,0-2.76-2.93,7,7,0,0,0-1.91,4.77c-.13,4.64,3.85,7.22,6,9.29,1.24,1.18,6.41,6.35,7.38,7.34v4.58H43.7V75.55c1.16-1.18,3.16-3.06,4.27-4.28a13.25,13.25,0,0,0-1-4.63l-5.51,5.6L34.9,65.58c-2.17-2.21-5.15-4.36-5.09-6.6a2.88,2.88,0,0,1,.68-1.9Z"/><path class="cls-2" d="M41.45,91.61C45.71,88.91,52,82.52,53,75.09H48.9A15.9,15.9,0,0,1,41.45,86a18.54,18.54,0,0,1-2.22-1.58,34.1,34.1,0,0,1-2.8,3,29.63,29.63,0,0,0,5,4.19Z"/><path class="cls-1" d="M45.33,75.61l-.72.61c-.1,2,.24,3.81,0,4.94,0,.17-.07.34-.11.5a15.68,15.68,0,0,0,2.4-3.93A20.21,20.21,0,0,1,45.33,75.61Z"/><path class="cls-3" d="M44.32,82.12l.2-1a10.56,10.56,0,0,0,0-2.27c0-.79-.09-1.7-.05-2.65v-.06l.87-.74.08.12A19.66,19.66,0,0,0,47,77.64l.05.06,0,.08a16,16,0,0,1-2.42,4Zm.41-5.84c0,.93,0,1.8.05,2.58a11.06,11.06,0,0,1,0,2.32,16.24,16.24,0,0,0,2-3.43,20.6,20.6,0,0,1-1.5-2Z"/><path class="cls-2" d="M29.63,71.85A20,20,0,0,0,31.31,80c1.57-.55,2.32-1.58,3.35-2.42a21.49,21.49,0,0,1-1.07-6L30,68.3a19.5,19.5,0,0,0-.36,3.55Z"/><path class="cls-2" d="M18.45,68v5.89h10a13.2,13.2,0,0,1,0-3.92H22.37V66.06l-3.93,2Z"/><path class="cls-2" d="M18.45,61.7a4.94,4.94,0,0,0,3.92.51V33.41c2.54,1,6.41,2.6,10.26,8.69a13,13,0,0,0-.24-2.18,22.93,22.93,0,0,0-1-2.31,13,13,0,0,0-3.26-5.06,14.56,14.56,0,0,0-9.65-3.93V61.7Z"/><path class="cls-2" d="M39.22,49.79c-.77,1.35-5,7.54-6.81,11.43l2.93,3a35.77,35.77,0,0,1,5.88-9.1h.47a25.12,25.12,0,0,1,2.8,3.64c.21-1.84.7-4.67,1-6.18-.61-1-1.38-2-1.8-2.76V15H39.22V49.79Z"/><path class="cls-2" d="M47.89,64.86a25.94,25.94,0,0,1,1.23,4H53a30.13,30.13,0,0,0-3.06-8.71,15.8,15.8,0,0,0-2,4.75Z"/><path class="cls-1" d="M14.38,57.45a7.24,7.24,0,0,1,2.85-5.77l0-11.28A12.54,12.54,0,0,0,6.52,53.1c0,5.35,2.39,8.33,4.4,9.88a10.4,10.4,0,0,0,8.47,2.08,9,9,0,0,0,3.15-1.64,8.24,8.24,0,0,1-6.91-2.05A5.88,5.88,0,0,1,14.38,57.45Z"/><path class="cls-3" d="M17.51,65.41a11.08,11.08,0,0,1-6.66-2.33c-2-1.57-4.46-4.58-4.46-10A12.69,12.69,0,0,1,17.18,40.28l.15,0v.15l0,11.35-.05,0a7.13,7.13,0,0,0-2.8,5.66,5.8,5.8,0,0,0,1.22,3.84,8,8,0,0,0,6.8,2l.47-.07-.37.3a9.19,9.19,0,0,1-3.2,1.66A7.46,7.46,0,0,1,17.51,65.41Zm-.43-24.86A12.46,12.46,0,0,0,6.64,53.1c0,5.3,2.37,8.25,4.36,9.78a10.25,10.25,0,0,0,8.36,2.06,8.63,8.63,0,0,0,2.73-1.34,8.17,8.17,0,0,1-6.55-2.14,6,6,0,0,1-1.29-4,7.41,7.41,0,0,1,2.85-5.83Z"/><path class="cls-3" d="M19.58,65.79a8.75,8.75,0,0,1-2.13.26,11.76,11.76,0,0,1-7-2.47c-2.15-1.66-4.7-4.83-4.7-10.48A13.28,13.28,0,0,1,17.2,39.64V34.32a16.69,16.69,0,0,0-17.06,17c0,13.09,11.07,17.41,17.14,15.84A12,12,0,0,0,21.52,65,8.91,8.91,0,0,1,19.58,65.79Z"/><path class="cls-1" d="M14.74,67.63A14.7,14.7,0,0,1,5.9,64.55C3.21,62.47,0,58.49,0,51.37A16.8,16.8,0,0,1,17.19,34.2h.12l0,5.55-.11,0A13.16,13.16,0,0,0,5.89,53.1c0,5.6,2.53,8.74,4.65,10.38a11.6,11.6,0,0,0,6.92,2.44,8.86,8.86,0,0,0,2.09-.25h0a8.61,8.61,0,0,0,1.91-.79l.14.2a12.09,12.09,0,0,1-4.3,2.25A10,10,0,0,1,14.74,67.63Zm2.32-33.18A16.55,16.55,0,0,0,.25,51.37c0,7,3.15,10.94,5.8,13a13.72,13.72,0,0,0,11.19,2.74,11.07,11.07,0,0,0,3.12-1.42q-.37.14-.75.24h0a8.85,8.85,0,0,1-2.15.26,11.84,11.84,0,0,1-7.07-2.49C8.22,62,5.64,58.8,5.64,53.1A13.41,13.41,0,0,1,17.08,39.54Z"/><path class="cls-1" d="M34.37,55.44c-1.72-5.68-4.9-10.41-8.46-12.37A18.42,18.42,0,0,0,23.65,42v9c2.7.06,6,2.3,7.53,4.88h0C32.44,58,32.33,59,32.33,59Z"/><path class="cls-3" d="M32.13,59.55,32.2,59a5.68,5.68,0,0,0-1.11-3v0c-1.62-2.64-4.88-4.76-7.43-4.82h-.12V41.82l.17.07A19.39,19.39,0,0,1,26,43c3.53,1.95,6.79,6.72,8.52,12.44v.05l0,0Zm-.85-3.75h0v0a7.5,7.5,0,0,1,1.13,2.72l1.81-3.13c-1.71-5.64-4.92-10.33-8.38-12.25a21.23,21.23,0,0,0-2.07-1v8.69C26.38,51,29.65,53.14,31.28,55.8Z"/><path class="cls-3" d="M26.28,42.41c3.57,2,6.78,6.59,8.6,12.15l1.31-2.28c-1.51-8-8.58-15-12.54-16.82V41.2A22,22,0,0,1,26.28,42.41Z"/><path class="cls-1" d="M34.84,54.87l-.08-.27c-1.84-5.62-5-10.14-8.54-12.08a21.09,21.09,0,0,0-2.61-1.2l-.08,0v-6l.17.08c4.21,1.9,11.12,9,12.62,16.91v.05ZM23.78,41.12a21,21,0,0,1,2.56,1.18h0c3.51,2,6.7,6.4,8.57,12l1.15-2c-1.48-7.68-8.12-14.61-12.28-16.6Z"/><path class="cls-1" d="M46.39,65.58l.5-.48A57,57,0,0,1,50,57.59l-1,0,0-1.39c-.34.74-.66,1.52-.95,2.33A30.57,30.57,0,0,0,46.39,65.58Z"/><path class="cls-3" d="M46.24,65.91l0-.34a30.06,30.06,0,0,1,1.63-7.12c.28-.78.6-1.57,1-2.34l.22-.5,0,1.82,1,0-.09.17A57.65,57.65,0,0,0,47,65.14v0Zm2.61-9.18c-.26.59-.5,1.2-.71,1.8a29.93,29.93,0,0,0-1.58,6.72l.22-.21a55,55,0,0,1,3-7.33l-.88,0Z"/><path class="cls-3" d="M47.31,58.24a28.93,28.93,0,0,1,1.63-3.72L48.8,46.1C46.42,51,45,60.76,45,67l.61-.59A31.14,31.14,0,0,1,47.31,58.24Z"/><path class="cls-1" d="M44.85,67.27V67c0-6.24,1.47-16,3.84-20.92l.23-.48.15,9,0,0a28.29,28.29,0,0,0-1.62,3.7h0a30.53,30.53,0,0,0-1.72,8.11v0Zm3.83-20.62c-2.18,4.93-3.54,14-3.58,20l.36-.35a31.18,31.18,0,0,1,1.73-8.13,30.36,30.36,0,0,1,1.62-3.7Z"/><path class="cls-3" d="M37.52,66.33A4.49,4.49,0,0,0,38,67c0-1.44-.07-3.06-.22-4.77l0-.46-1.19,1.77s0,1.1,0,1.62Z"/><path class="cls-1" d="M38.15,67.28l-.22-.22a4.06,4.06,0,0,1-.51-.65l-1-1.24v0c0-.5,0-1.6,0-1.61v0l0,0,1.38-2.06.07.81c.15,1.73.23,3.34.23,4.78ZM36.7,65.09l.93,1.18a3.18,3.18,0,0,0,.27.37c0-1.35-.09-2.84-.23-4.43v-.1l-1,1.43C36.71,63.74,36.72,64.61,36.7,65.09Z"/><polygon class="cls-3" points="59.39 63.46 58.59 63.26 59.39 64.42 59.39 63.46"/><path class="cls-1" d="M59.51,64.82,58.3,63.06l1.21.3Zm-.63-1.36.38.55v-.46Z"/><path class="cls-1" d="M24.13,77.88a5.18,5.18,0,0,0-.23,2.41c.78,4.41,3.53,4.85,6,4.91h.12A7.29,7.29,0,0,0,35.58,83c.67-.59,1.84-1.89,2.34-2.46,0-1.11.18-2.62.1-4.32l-.72-.61C31.51,84.29,25,81.84,24.13,77.88Z"/><path class="cls-3" d="M29.94,85.33c-2.56-.07-5.37-.52-6.16-5A5.27,5.27,0,0,1,24,77.84l.14-.44.1.45a4.56,4.56,0,0,0,3.68,3.42c1.46.27,5.27.26,9.27-5.73l.07-.12.88.74v.06c0,1,0,1.86,0,2.65a16.54,16.54,0,0,0-.05,1.67v0l0,0c-.41.45-1.65,1.84-2.36,2.47a7.44,7.44,0,0,1-5.6,2.23Zm-5.81-7a4.54,4.54,0,0,0-.1,1.92c.76,4.31,3.45,4.74,5.92,4.81h.11a7.19,7.19,0,0,0,5.43-2.17c.68-.6,1.87-1.92,2.31-2.41a15.74,15.74,0,0,1,.05-1.64c0-.78.09-1.65,0-2.58l-.57-.49c-4,6-7.95,6-9.44,5.73A4.84,4.84,0,0,1,24.13,78.35Z"/><path class="cls-3" d="M38.06,81.52a27.59,27.59,0,0,1-2,2,8,8,0,0,1-6,2.4H30c-2.93-.07-6-.79-6.82-5.53a6,6,0,0,1,.27-2.84c-.74,1.18-1.86,3.4-1.49,5.53.93,5.28,4.38,5.81,7.22,5.89h.18a8.61,8.61,0,0,0,6.47-2.61c.91-.78,2.59-2.7,2.9-3A4.38,4.38,0,0,1,38.06,81.52Z"/><path class="cls-1" d="M29.16,89.12c-3.28-.09-6.44-.87-7.34-6-.38-2.18.78-4.46,1.51-5.62l.53-.85-.31,1a5.8,5.8,0,0,0-.26,2.78c.82,4.65,3.84,5.35,6.7,5.43h.11A7.91,7.91,0,0,0,36,83.46c.42-.37,1.08-1,2-2l.17-.19,0,.25a4.34,4.34,0,0,0,.63,1.77l.06.08-.25.29c-.53.59-1.93,2.16-2.72,2.85a8.69,8.69,0,0,1-6.56,2.63h-.18ZM23.08,78.44a7.59,7.59,0,0,0-1,4.65c.87,4.94,3.92,5.7,7.09,5.78h.18a8.46,8.46,0,0,0,6.39-2.57c.78-.68,2.17-2.24,2.7-2.83l.12-.13A4.64,4.64,0,0,1,38,81.79c-.8.88-1.41,1.51-1.81,1.86a8.14,8.14,0,0,1-6.07,2.43H30C27,86,23.89,85.27,23,80.44A5.64,5.64,0,0,1,23.08,78.44Z"/><path class="cls-1" d="M52.66,85.48h.12c2.54-.07,5.29-.51,6.07-4.92a5.51,5.51,0,0,0-.33-2.73c-.72,3.51-4.61,4-6.35,3.42h0A15.33,15.33,0,0,1,50,85.05,8.88,8.88,0,0,0,52.66,85.48Z"/><path class="cls-3" d="M52.66,85.6h0a8.56,8.56,0,0,1-2.74-.43l-.17-.06.11-.14A14.77,14.77,0,0,0,52,81.21l0-.08h.14a5.7,5.7,0,0,0,4.22-.54,4,4,0,0,0,2-2.79l.09-.43.15.41A5.38,5.38,0,0,1,59,80.59c-.79,4.49-3.61,4.94-6.18,5Zm0-.25h.11c2.48-.06,5.19-.49,5.95-4.81a4.92,4.92,0,0,0-.2-2.27,4.3,4.3,0,0,1-2,2.54,6,6,0,0,1-4.32.59A14.92,14.92,0,0,1,50.16,85,8.44,8.44,0,0,0,52.67,85.35Z"/><path class="cls-3" d="M60.46,80.14a9.43,9.43,0,0,0-1.31-2.77,6.39,6.39,0,0,1,.44,3.33c-.84,4.73-3.89,5.45-6.76,5.53h-.12a9.51,9.51,0,0,1-3.24-.56c-.77,1-1.4,1.62-1.4,1.62A8.6,8.6,0,0,0,53.51,89c2.84-.08,6.48-1,7.22-5.89A6.64,6.64,0,0,0,60.46,80.14Z"/><path class="cls-1" d="M53.52,89.12A8.75,8.75,0,0,1,48,87.39l-.11-.09.09-.1s.63-.66,1.4-1.61l0-.07.09,0a8.91,8.91,0,0,0,3.19.55h.12c2.82-.07,5.82-.78,6.64-5.43A6.15,6.15,0,0,0,59,77.41l-.38-1,.6.85a9.71,9.71,0,0,1,1.33,2.81h0v0a6.68,6.68,0,0,1,.27,3C60.27,87,57.8,89,53.52,89.12Zm-5.26-1.85a8.57,8.57,0,0,0,5.26,1.6c4.19-.11,6.52-2,7.09-5.78a6.3,6.3,0,0,0-.26-2.87v0a9,9,0,0,0-.76-1.86,5.71,5.71,0,0,1,.13,2.41c-.85,4.82-4,5.55-6.88,5.63h-.12a9.43,9.43,0,0,1-3.19-.53C49,86.53,48.46,87.06,48.26,87.27Z"/><path class="cls-1" d="M40.91,13.76V.38l-1.28,1h0c-7.35,5.41-9.94,12.47-10,21.36-.11,11.67,6.07,17.49,7.62,27.94L38,49.34l0-35.58Z"/><path class="cls-3" d="M37.16,51.09l0-.36A47.86,47.86,0,0,0,33.43,39c-2-4.71-4-9.58-3.94-16.27.09-9.77,3.18-16.38,10-21.43l0,0L41,.12V13.88h-3l0,35.49ZM39.75,1.46h0l0,.05c-6.8,5-9.87,11.56-10,21.26-.06,6.64,1.87,11.27,3.92,16.17A48.79,48.79,0,0,1,37.3,50.33l.57-1,0-35.68h3V.64Z"/><path class="cls-3" d="M43.28,1.45h0L41.79.26v13.5h3.15l0,35.63.79,1.25c1.56-10.46,7-16.31,7.37-27.93C53.35,13.66,50.85,7,43.28,1.45Z"/><path class="cls-1" d="M45.77,51l-1-1.56v0l0-35.51H41.66V0l1.75,1.38C50.57,6.65,53.49,13,53.18,22.72c-.21,6.56-2.06,11.37-3.85,16a53.89,53.89,0,0,0-3.51,11.9ZM45,49.35l.6.94a55.43,55.43,0,0,1,3.47-11.63c1.79-4.64,3.63-9.43,3.84-15.95.31-9.62-2.6-15.94-9.72-21.16l-.05-.05-1.25-1V13.63h3.15v.13Z"/><path class="cls-3" d="M43.1,58.82l0,0-.86-1.12h0l-.3-.39V70.09L44,67.66a69.13,69.13,0,0,1,.32-7.33Z"/><path class="cls-1" d="M41.77,70.44V56.9l.31.39h0l2.32,3v.05A47.92,47.92,0,0,0,44.1,66c0,.56,0,1.12,0,1.68v0l0,0ZM42,57.63V69.75l1.8-2.14c0-.54,0-1.09,0-1.64a52.24,52.24,0,0,1,.28-5.6Z"/><path class="cls-1" d="M41,57.27l-.3.39h0L39.4,59.37l-.07.08h0l-.68.88A71.89,71.89,0,0,1,39,67.66L41,70.3Z"/><path class="cls-3" d="M41.14,70.67l-2.3-3v0l0-1.7a47.58,47.58,0,0,0-.28-5.61V60.3l.78-1,1.54-2h0l.3-.39Zm-2-3.06,1.8,2.32V57.64l-.3.38h0l-1.81,2.35A47.29,47.29,0,0,1,39.06,66C39.07,66.51,39.08,67.07,39.09,67.61Z"/><path class="cls-1" d="M41,81.28H39.09a3.42,3.42,0,0,0,1.92,3Z"/><path class="cls-3" d="M41.14,84.53l-.18-.1a3.52,3.52,0,0,1-2-3.15v-.12h2.17Zm-1.92-3.12a3.24,3.24,0,0,0,1.67,2.69V81.4Z"/><path class="cls-3" d="M41.9,81.27v3a4.22,4.22,0,0,0,2-3Z"/><path class="cls-1" d="M41.77,84.51V81.15h2.29l0,.14A4.28,4.28,0,0,1,42,84.41ZM42,81.4v2.68a4.07,4.07,0,0,0,1.75-2.69Z"/><path class="cls-1" d="M41.07,92.86a30.68,30.68,0,0,1-4.44-3.6A21.15,21.15,0,0,0,36.18,94a16.66,16.66,0,0,0,4.89,10.29Z"/><path class="cls-3" d="M41.19,104.61,41,104.4A16.91,16.91,0,0,1,36.06,94a19.94,19.94,0,0,1,.45-4.8l0-.24.17.18a30.09,30.09,0,0,0,4.42,3.59l0,0ZM36.71,89.52a18.81,18.81,0,0,0-.4,4.49,16.62,16.62,0,0,0,4.63,10V92.93A31.66,31.66,0,0,1,36.71,89.52Z"/><path class="cls-3" d="M46.27,89.26A30.28,30.28,0,0,1,42,92.82v11.4A17,17,0,0,0,46.72,94,19.54,19.54,0,0,0,46.27,89.26Z"/><path class="cls-1" d="M41.82,104.53V92.75l.06,0a29.78,29.78,0,0,0,4.29-3.55l.17-.19,0,.25a19.44,19.44,0,0,1,.45,4.8A17.08,17.08,0,0,1,42,104.31Zm.25-11.65v11A16.85,16.85,0,0,0,46.59,94a18.18,18.18,0,0,0-.4-4.48A31.31,31.31,0,0,1,42.07,92.88Z"/><path class="cls-1" d="M62.2,50.73c3.54,0,6.08,3.88,6.08,6.72s-1.34,4.47-2.84,5.15l0,2.58c.21,0,.42,0,.62,0A10.18,10.18,0,0,0,73.45,61c1.53-2.05,3-5.6,1.62-10.84-1.22-4.49-4.25-7.59-8.08-8.3-4-.73-8.11,1.13-11.59,5.91v4.33A10.9,10.9,0,0,1,62.2,50.73Z"/><path class="cls-3" d="M65.85,65.32h-.57l0-2.78.08,0c1-.47,2.76-1.75,2.76-5,0-2.63-2.37-6.6-6-6.6h0a10.91,10.91,0,0,0-6.72,1.32l-.18.1V47.69l0,0c3.36-4.6,7.51-6.72,11.71-5.95,3.89.71,6.94,3.85,8.18,8.39,1.44,5.28-.1,8.87-1.64,10.95A10.32,10.32,0,0,1,66,65.32Zm-.32-.25a4.16,4.16,0,0,0,.5,0,10,10,0,0,0,7.32-4.18c1.51-2,3-5.55,1.6-10.73-1.21-4.45-4.2-7.52-8-8.21-4.15-.76-8.1,1.25-11.44,5.82v4.08a11.13,11.13,0,0,1,6.68-1.25,5.79,5.79,0,0,1,4.45,2.34,7.64,7.64,0,0,1,1.74,4.51c0,3.36-1.74,4.71-2.84,5.23Z"/><path class="cls-3" d="M65.81,34.32c-2.56,0-5,.31-6.67,1.44a9.34,9.34,0,0,0-3.73,6.89h0v4c3.27-4.27,7.52-6.29,11.72-5.51s7.37,4.06,8.67,8.84c1.51,5.52-.11,9.29-1.74,11.48a11,11,0,0,1-8,4.54h-.2l-.46,0,0,1.29c6.07,1.56,17.15-2.75,17.15-15.84C82.53,42,75.88,34.32,65.81,34.32Z"/><path class="cls-1" d="M67.9,67.63a10.5,10.5,0,0,1-2.55-.3l-.1,0,0-1.52.25,0h.53A10.82,10.82,0,0,0,74,61.34c1.61-2.17,3.21-5.9,1.72-11.38-1.29-4.73-4.49-8-8.57-8.75s-8.36,1.24-11.6,5.47l-.22.29V42.54a9.58,9.58,0,0,1,3.8-6.88c1.49-1,3.63-1.46,6.73-1.46a16.57,16.57,0,0,1,12.23,5,17.53,17.53,0,0,1,4.61,12.12c0,7.11-3.2,11.09-5.88,13.17A14.73,14.73,0,0,1,67.9,67.63Zm-2.39-.52a13.81,13.81,0,0,0,11.11-2.77c2.64-2.05,5.78-6,5.78-13a17.24,17.24,0,0,0-4.55-11.95,16.3,16.3,0,0,0-12-5c-3.05,0-5.14.45-6.6,1.42a9.29,9.29,0,0,0-3.68,6.78v3.59c3.27-4.12,7.49-6,11.62-5.28s7.45,4.11,8.76,8.93c1.52,5.58-.12,9.39-1.76,11.6a11.06,11.06,0,0,1-8.09,4.58,4.87,4.87,0,0,1-.54,0Z"/></g></g></svg>
